<svg width="35" height="44" viewBox="0 0 35 44" fill="none" xmlns="http://www.w3.org/2000/svg">
<path fill-rule="evenodd" clip-rule="evenodd" d="M19.4323 32.1983C23.4081 31.2593 27.4871 31.0701 31.4399 30.9265C32.2909 30.8994 32.984 31.7972 32.9267 32.9201C32.929 34.0521 32.2243 34.9903 31.433 35.0255C27.6023 35.1603 23.6478 35.3243 19.8569 36.2333C19.0485 36.4324 18.2781 35.6885 18.1529 34.5736C18.0276 33.4595 18.6238 32.3981 19.4323 32.1983Z" fill="#FFB400"/>
<path fill-rule="evenodd" clip-rule="evenodd" d="M11.8222 25.7652C18.1086 17.7775 25.4507 10.4309 31.5674 2.29911C32.1079 1.54603 33.239 1.27696 34.0413 1.70875C34.8438 2.14115 35.0696 3.10142 34.458 3.86924C28.3443 12.0201 21.0052 19.3852 14.7218 27.392C14.1079 28.145 12.9732 28.3894 12.1682 27.941C11.4344 27.4785 11.2083 26.5183 11.8222 25.7652Z" fill="#FFB400"/>
<path fill-rule="evenodd" clip-rule="evenodd" d="M5.72274 9.35212C5.78832 12.9789 5.85425 16.6057 5.91987 20.2332C5.97715 21.0601 5.28302 21.7654 4.41923 21.8032C3.5554 21.8403 2.892 21.192 2.83467 20.3645C2.76868 16.7317 2.70237 13.0995 2.63642 9.46724C2.64064 8.63476 3.33483 7.93365 4.19895 7.90072C5.00157 7.87335 5.727 8.52023 5.72274 9.35212Z" fill="#FFB400"/>
</svg>
